# xmcd CD database file generated by OrangeCD 5.2
#
# Track frame offsets:
#	183
#	15620
#	27003
#	49930
#	76648
#	102820
#	128053
#	140595
#	153645
#	179125
#	213130
#	234855
#	271435
#	282383
#	294933
#
# Disc length: 4304 seconds
#
# Revision: 1
# Processed by: cddbd v1.5.1PL0 Copyright (c) Steve Scherf et al.
# Submitted via: OrangeCD 5.2
#
DISCID=cb10ce0f
DTITLE=Various Artist - The World Of Jazz Trumpet
DYEAR=1989
DGENRE=Jazz
TTITLE0=Louis Armstrong - Mack The Knife
TTITLE1=Harry James - Ciribiribn
TTITLE2=Howard McGhee - Shades Of Blue
TTITLE3=Sonny Stitt - The Sharp Edge
TTITLE4=Freddy Hubbard - Ley
TTITLE5=Donald Byrd - Child's Play
TTITLE6=Louis Armstrong - When It's Sleepy Time Down South
TTITLE7=Harry james - (By The) Sleepy Lagoon
TTITLE8=Clark Terry - No Problem
TTITLE9=Kenny Dorham - An Oscar For Oscar
TTITLE10=Booker Little - Man Of Words
TTITLE11=Benny Bailey - A Kiss To Build A Dream On
TTITLE12=Louis Armstrong - Hello Dolly
TTITLE13=Harry James - Sleepy Time Gal
TTITLE14=Ben Webster - Bill Coleman
EXTD=YEAR: 1989
EXTT0=
EXTT1=
EXTT2=
EXTT3=
EXTT4=
EXTT5=
EXTT6=
EXTT7=
EXTT8=
EXTT9=
EXTT10=
EXTT11=
EXTT12=
EXTT13=
EXTT14=
PLAYORDER=
